<svg xmlns="http://www.w3.org/2000/svg" width="1200" height="660" viewBox="0 0 1200 660" fill="none">
  <defs>
    <linearGradient id="bg" x1="0" y1="0" x2="1" y2="1"><stop offset="0%" stop-color="#0c1825"/><stop offset="100%" stop-color="#071019"/></linearGradient>
    <filter id="shadow" x="-20%" y="-20%" width="160%" height="160%"><feDropShadow dx="0" dy="16" stdDeviation="16" flood-color="#000" flood-opacity="0.25"/></filter>
    <marker id="arrow" markerWidth="10" markerHeight="10" refX="9" refY="5" orient="auto"><path d="M0 0L10 5L0 10Z" fill="#8bd3ff"/></marker>
    <style>
      .title{fill:#eef4f9;font:700 34px -apple-system,BlinkMacSystemFont,'Segoe UI',sans-serif}
      .subtitle{fill:#a8b7c6;font:400 16px -apple-system,BlinkMacSystemFont,'Segoe UI',sans-serif}
      .label{fill:#eef4f9;font:700 18px -apple-system,BlinkMacSystemFont,'Segoe UI',sans-serif}
      .body{fill:#a8b7c6;font:400 14px -apple-system,BlinkMacSystemFont,'Segoe UI',sans-serif}
      .code{fill:#8bd3ff;font:600 13px 'SF Mono',Menlo,Consolas,monospace}
      .chip{fill:#95f0c1;font:700 12px -apple-system,BlinkMacSystemFont,'Segoe UI',sans-serif}
    </style>
  </defs>
  <rect width="1200" height="660" rx="28" fill="url(#bg)"/>
  <text x="36" y="50" class="title">What replay actually does</text>
  <text x="36" y="78" class="subtitle">Replay is the gate between a candidate graph and the live runtime.</text>
  
<path d="M300 280 L470 280" stroke="#8bd3ff" stroke-width="5" marker-end="url(#arrow)"/>
<path d="M720 280 L885 220" stroke="#95f0c1" stroke-width="5" marker-end="url(#arrow)"/>
<path d="M720 280 L885 390" stroke="#ff9ca8" stroke-width="5" marker-end="url(#arrow)"/>
<rect x="70" y="150" width="230" height="260" rx="24" fill="#0d1a28" stroke="#f2a8ff" stroke-opacity="0.4" filter="url(#shadow)"/>
<text x="88" y="182" class="label">Candidate pack</text>
<text x="88" y="210" class="body">Built from exported turns,</text>
<text x="88" y="230" class="body">corrections, summaries,</text>
<text x="88" y="250" class="body">and routing evidence.</text>
<text x="88" y="272" class="code">candidate graph</text>
<text x="88" y="290" class="code">not live yet</text>
<circle cx="520" cy="280" r="110" fill="#102235" stroke="#8bd3ff" stroke-opacity="0.35" filter="url(#shadow)"/>
<text x="455" y="248" class="label">Replay gate</text>
<text x="430" y="276" class="body">Reconstruct trajectories.</text>
<text x="430" y="296" class="body">Check retrieval/reporting.</text>
<text x="430" y="316" class="body">Protect live serving truth.</text>
<text x="410" y="352" class="code">candidate passes?</text>
<rect x="885" y="115" width="245" height="190" rx="24" fill="#0d1a28" stroke="#95f0c1" stroke-opacity="0.4" filter="url(#shadow)"/>
<text x="903" y="147" class="label">Promote</text>
<text x="903" y="175" class="body">If replay passes, the candidate</text>
<text x="903" y="195" class="body">becomes the new active pack</text>
<text x="903" y="215" class="body">for the live runtime.</text>
<text x="903" y="237" class="code">serve state=serving_active_pack</text>
<rect x="885" y="330" width="245" height="170" rx="24" fill="#0d1a28" stroke="#ff9ca8" stroke-opacity="0.4" filter="url(#shadow)"/>
<text x="903" y="362" class="label">Reject / keep current</text>
<text x="903" y="390" class="body">If replay fails, the runtime</text>
<text x="903" y="410" class="body">stays on the previous promoted</text>
<text x="903" y="430" class="body">pack instead of mutating live state.</text>
<text x="903" y="452" class="code">current pack stays live</text>
<rect x="110" y="470" width="980" height="140" rx="24" fill="#102235" stroke="#95f0c1" stroke-opacity="0.25"/>
<text x="140" y="515" class="label">Current host truth</text>
<text x="140" y="540" class="body">On this host today, replay has already promoted a live pack: pack-9d43af80.</text>
<text x="140" y="562" class="body">Detailed status shows routeFn available=yes, serve state=serving_active_pack, and traced routes / supervision / updates are present.</text>
<text x="140" y="592" class="code">routes=1457   supervision=32   updates=58   pack=pack-9d43af80</text>

</svg>
