<?xml version='1.0' encoding='UTF-8'?>
<svg width="52.8mm" height="52.8mm" version="1.1" viewBox="0 0 52.8 52.8" xmlns="http://www.w3.org/2000/svg"><path d="M6.4,6.4H8V8H6.4zM8,6.4H9.6V8H8zM9.6,6.4H11.2V8H9.6zM11.2,6.4H12.8V8H11.2zM12.8,6.4H14.4V8H12.8zM14.4,6.4H16V8H14.4zM16,6.4H17.6V8H16zM19.2,6.4H20.8V8H19.2zM20.8,6.4H22.4V8H20.8zM25.6,6.4H27.2V8H25.6zM27.2,6.4H28.8V8H27.2zM35.2,6.4H36.8V8H35.2zM36.8,6.4H38.4V8H36.8zM38.4,6.4H40V8H38.4zM40,6.4H41.6V8H40zM41.6,6.4H43.2V8H41.6zM43.2,6.4H44.8V8H43.2zM44.8,6.4H46.4V8H44.8zM6.4,8H8V9.6H6.4zM16,8H17.6V9.6H16zM20.8,8H22.4V9.6H20.8zM22.4,8H24V9.6H22.4zM24,8H25.6V9.6H24zM25.6,8H27.2V9.6H25.6zM27.2,8H28.8V9.6H27.2zM35.2,8H36.8V9.6H35.2zM44.8,8H46.4V9.6H44.8zM6.4,9.6H8V11.2H6.4zM9.6,9.6H11.2V11.2H9.6zM11.2,9.6H12.8V11.2H11.2zM12.8,9.6H14.4V11.2H12.8zM16,9.6H17.6V11.2H16zM19.2,9.6H20.8V11.2H19.2zM20.8,9.6H22.4V11.2H20.8zM22.4,9.6H24V11.2H22.4zM24,9.6H25.6V11.2H24zM25.6,9.6H27.2V11.2H25.6zM27.2,9.6H28.8V11.2H27.2zM28.8,9.6H30.4V11.2H28.8zM32,9.6H33.6V11.2H32zM35.2,9.6H36.8V11.2H35.2zM38.4,9.6H40V11.2H38.4zM40,9.6H41.6V11.2H40zM41.6,9.6H43.2V11.2H41.6zM44.8,9.6H46.4V11.2H44.8zM6.4,11.2H8V12.8H6.4zM9.6,11.2H11.2V12.8H9.6zM11.2,11.2H12.8V12.8H11.2zM12.8,11.2H14.4V12.8H12.8zM16,11.2H17.6V12.8H16zM20.8,11.2H22.4V12.8H20.8zM22.4,11.2H24V12.8H22.4zM27.2,11.2H28.8V12.8H27.2zM28.8,11.2H30.4V12.8H28.8zM35.2,11.2H36.8V12.8H35.2zM38.4,11.2H40V12.8H38.4zM40,11.2H41.6V12.8H40zM41.6,11.2H43.2V12.8H41.6zM44.8,11.2H46.4V12.8H44.8zM6.4,12.8H8V14.4H6.4zM9.6,12.8H11.2V14.4H9.6zM11.2,12.8H12.8V14.4H11.2zM12.8,12.8H14.4V14.4H12.8zM16,12.8H17.6V14.4H16zM20.8,12.8H22.4V14.4H20.8zM24,12.8H25.6V14.4H24zM25.6,12.8H27.2V14.4H25.6zM27.2,12.8H28.8V14.4H27.2zM28.8,12.8H30.4V14.4H28.8zM35.2,12.8H36.8V14.4H35.2zM38.4,12.8H40V14.4H38.4zM40,12.8H41.6V14.4H40zM41.6,12.8H43.2V14.4H41.6zM44.8,12.8H46.4V14.4H44.8zM6.4,14.4H8V16H6.4zM16,14.4H17.6V16H16zM19.2,14.4H20.8V16H19.2zM20.8,14.4H22.4V16H20.8zM24,14.4H25.6V16H24zM25.6,14.4H27.2V16H25.6zM32,14.4H33.6V16H32zM35.2,14.4H36.8V16H35.2zM44.8,14.4H46.4V16H44.8zM6.4,16H8V17.6H6.4zM8,16H9.6V17.6H8zM9.6,16H11.2V17.6H9.6zM11.2,16H12.8V17.6H11.2zM12.8,16H14.4V17.6H12.8zM14.4,16H16V17.6H14.4zM16,16H17.6V17.6H16zM19.2,16H20.8V17.6H19.2zM22.4,16H24V17.6H22.4zM25.6,16H27.2V17.6H25.6zM28.8,16H30.4V17.6H28.8zM32,16H33.6V17.6H32zM35.2,16H36.8V17.6H35.2zM36.8,16H38.4V17.6H36.8zM38.4,16H40V17.6H38.4zM40,16H41.6V17.6H40zM41.6,16H43.2V17.6H41.6zM43.2,16H44.8V17.6H43.2zM44.8,16H46.4V17.6H44.8zM20.8,17.6H22.4V19.2H20.8zM22.4,17.6H24V19.2H22.4zM24,17.6H25.6V19.2H24zM28.8,17.6H30.4V19.2H28.8zM30.4,17.6H32V19.2H30.4zM32,17.6H33.6V19.2H32zM6.4,19.2H8V20.8H6.4zM9.6,19.2H11.2V20.8H9.6zM16,19.2H17.6V20.8H16zM17.6,19.2H19.2V20.8H17.6zM20.8,19.2H22.4V20.8H20.8zM25.6,19.2H27.2V20.8H25.6zM30.4,19.2H32V20.8H30.4zM36.8,19.2H38.4V20.8H36.8zM41.6,19.2H43.2V20.8H41.6zM44.8,19.2H46.4V20.8H44.8zM6.4,20.8H8V22.4H6.4zM8,20.8H9.6V22.4H8zM9.6,20.8H11.2V22.4H9.6zM11.2,20.8H12.8V22.4H11.2zM12.8,20.8H14.4V22.4H12.8zM20.8,20.8H22.4V22.4H20.8zM25.6,20.8H27.2V22.4H25.6zM27.2,20.8H28.8V22.4H27.2zM30.4,20.8H32V22.4H30.4zM32,20.8H33.6V22.4H32zM33.6,20.8H35.2V22.4H33.6zM35.2,20.8H36.8V22.4H35.2zM36.8,20.8H38.4V22.4H36.8zM40,20.8H41.6V22.4H40zM43.2,20.8H44.8V22.4H43.2zM44.8,20.8H46.4V22.4H44.8zM9.6,22.4H11.2V24H9.6zM12.8,22.4H14.4V24H12.8zM14.4,22.4H16V24H14.4zM16,22.4H17.6V24H16zM19.2,22.4H20.8V24H19.2zM22.4,22.4H24V24H22.4zM24,22.4H25.6V24H24zM27.2,22.4H28.8V24H27.2zM28.8,22.4H30.4V24H28.8zM30.4,22.4H32V24H30.4zM33.6,22.4H35.2V24H33.6zM35.2,22.4H36.8V24H35.2zM40,22.4H41.6V24H40zM41.6,22.4H43.2V24H41.6zM44.8,22.4H46.4V24H44.8zM8,24H9.6V25.6H8zM9.6,24H11.2V25.6H9.6zM11.2,24H12.8V25.6H11.2zM12.8,24H14.4V25.6H12.8zM19.2,24H20.8V25.6H19.2zM20.8,24H22.4V25.6H20.8zM22.4,24H24V25.6H22.4zM25.6,24H27.2V25.6H25.6zM28.8,24H30.4V25.6H28.8zM36.8,24H38.4V25.6H36.8zM38.4,24H40V25.6H38.4zM40,24H41.6V25.6H40zM11.2,25.6H12.8V27.2H11.2zM16,25.6H17.6V27.2H16zM17.6,25.6H19.2V27.2H17.6zM25.6,25.6H27.2V27.2H25.6zM30.4,25.6H32V27.2H30.4zM32,25.6H33.6V27.2H32zM35.2,25.6H36.8V27.2H35.2zM36.8,25.6H38.4V27.2H36.8zM44.8,25.6H46.4V27.2H44.8zM8,27.2H9.6V28.8H8zM19.2,27.2H20.8V28.8H19.2zM20.8,27.2H22.4V28.8H20.8zM25.6,27.2H27.2V28.8H25.6zM27.2,27.2H28.8V28.8H27.2zM30.4,27.2H32V28.8H30.4zM32,27.2H33.6V28.8H32zM35.2,27.2H36.8V28.8H35.2zM36.8,27.2H38.4V28.8H36.8zM43.2,27.2H44.8V28.8H43.2zM44.8,27.2H46.4V28.8H44.8zM6.4,28.8H8V30.4H6.4zM8,28.8H9.6V30.4H8zM9.6,28.8H11.2V30.4H9.6zM11.2,28.8H12.8V30.4H11.2zM12.8,28.8H14.4V30.4H12.8zM16,28.8H17.6V30.4H16zM20.8,28.8H22.4V30.4H20.8zM22.4,28.8H24V30.4H22.4zM25.6,28.8H27.2V30.4H25.6zM30.4,28.8H32V30.4H30.4zM32,28.8H33.6V30.4H32zM35.2,28.8H36.8V30.4H35.2zM40,28.8H41.6V30.4H40zM41.6,28.8H43.2V30.4H41.6zM44.8,28.8H46.4V30.4H44.8zM12.8,30.4H14.4V32H12.8zM17.6,30.4H19.2V32H17.6zM22.4,30.4H24V32H22.4zM24,30.4H25.6V32H24zM25.6,30.4H27.2V32H25.6zM32,30.4H33.6V32H32zM33.6,30.4H35.2V32H33.6zM36.8,30.4H38.4V32H36.8zM38.4,30.4H40V32H38.4zM40,30.4H41.6V32H40zM6.4,32H8V33.6H6.4zM8,32H9.6V33.6H8zM9.6,32H11.2V33.6H9.6zM12.8,32H14.4V33.6H12.8zM14.4,32H16V33.6H14.4zM16,32H17.6V33.6H16zM17.6,32H19.2V33.6H17.6zM19.2,32H20.8V33.6H19.2zM25.6,32H27.2V33.6H25.6zM28.8,32H30.4V33.6H28.8zM32,32H33.6V33.6H32zM33.6,32H35.2V33.6H33.6zM35.2,32H36.8V33.6H35.2zM36.8,32H38.4V33.6H36.8zM38.4,32H40V33.6H38.4zM43.2,32H44.8V33.6H43.2zM19.2,33.6H20.8V35.2H19.2zM20.8,33.6H22.4V35.2H20.8zM27.2,33.6H28.8V35.2H27.2zM32,33.6H33.6V35.2H32zM38.4,33.6H40V35.2H38.4zM44.8,33.6H46.4V35.2H44.8zM6.4,35.2H8V36.8H6.4zM8,35.2H9.6V36.8H8zM9.6,35.2H11.2V36.8H9.6zM11.2,35.2H12.8V36.8H11.2zM12.8,35.2H14.4V36.8H12.8zM14.4,35.2H16V36.8H14.4zM16,35.2H17.6V36.8H16zM19.2,35.2H20.8V36.8H19.2zM20.8,35.2H22.4V36.8H20.8zM22.4,35.2H24V36.8H22.4zM24,35.2H25.6V36.8H24zM32,35.2H33.6V36.8H32zM35.2,35.2H36.8V36.8H35.2zM38.4,35.2H40V36.8H38.4zM44.8,35.2H46.4V36.8H44.8zM6.4,36.8H8V38.4H6.4zM16,36.8H17.6V38.4H16zM20.8,36.8H22.4V38.4H20.8zM22.4,36.8H24V38.4H22.4zM24,36.8H25.6V38.4H24zM25.6,36.8H27.2V38.4H25.6zM30.4,36.8H32V38.4H30.4zM32,36.8H33.6V38.4H32zM38.4,36.8H40V38.4H38.4zM43.2,36.8H44.8V38.4H43.2zM6.4,38.4H8V40H6.4zM9.6,38.4H11.2V40H9.6zM11.2,38.4H12.8V40H11.2zM12.8,38.4H14.4V40H12.8zM16,38.4H17.6V40H16zM25.6,38.4H27.2V40H25.6zM30.4,38.4H32V40H30.4zM32,38.4H33.6V40H32zM33.6,38.4H35.2V40H33.6zM35.2,38.4H36.8V40H35.2zM36.8,38.4H38.4V40H36.8zM38.4,38.4H40V40H38.4zM43.2,38.4H44.8V40H43.2zM6.4,40H8V41.6H6.4zM9.6,40H11.2V41.6H9.6zM11.2,40H12.8V41.6H11.2zM12.8,40H14.4V41.6H12.8zM16,40H17.6V41.6H16zM22.4,40H24V41.6H22.4zM24,40H25.6V41.6H24zM30.4,40H32V41.6H30.4zM32,40H33.6V41.6H32zM33.6,40H35.2V41.6H33.6zM38.4,40H40V41.6H38.4zM41.6,40H43.2V41.6H41.6zM43.2,40H44.8V41.6H43.2zM6.4,41.6H8V43.2H6.4zM9.6,41.6H11.2V43.2H9.6zM11.2,41.6H12.8V43.2H11.2zM12.8,41.6H14.4V43.2H12.8zM16,41.6H17.6V43.2H16zM19.2,41.6H20.8V43.2H19.2zM22.4,41.6H24V43.2H22.4zM24,41.6H25.6V43.2H24zM27.2,41.6H28.8V43.2H27.2zM28.8,41.6H30.4V43.2H28.8zM30.4,41.6H32V43.2H30.4zM32,41.6H33.6V43.2H32zM33.6,41.6H35.2V43.2H33.6zM36.8,41.6H38.4V43.2H36.8zM38.4,41.6H40V43.2H38.4zM40,41.6H41.6V43.2H40zM43.2,41.6H44.8V43.2H43.2zM44.8,41.6H46.4V43.2H44.8zM6.4,43.2H8V44.8H6.4zM16,43.2H17.6V44.8H16zM28.8,43.2H30.4V44.8H28.8zM32,43.2H33.6V44.8H32zM33.6,43.2H35.2V44.8H33.6zM35.2,43.2H36.8V44.8H35.2zM36.8,43.2H38.4V44.8H36.8zM38.4,43.2H40V44.8H38.4zM6.4,44.8H8V46.4H6.4zM8,44.8H9.6V46.4H8zM9.6,44.8H11.2V46.4H9.6zM11.2,44.8H12.8V46.4H11.2zM12.8,44.8H14.4V46.4H12.8zM14.4,44.8H16V46.4H14.4zM16,44.8H17.6V46.4H16zM19.2,44.8H20.8V46.4H19.2zM25.6,44.8H27.2V46.4H25.6zM32,44.8H33.6V46.4H32zM33.6,44.8H35.2V46.4H33.6zM40,44.8H41.6V46.4H40zM44.8,44.8H46.4V46.4H44.8z" id="qr-path" fill="#000000" fill-opacity="1" fill-rule="nonzero" stroke="none" /></svg>