<svg xmlns="http://www.w3.org/2000/svg" viewBox="0 0 1160 720" role="img" aria-labelledby="title desc">
<title>Learning curve for graph prior versus learned routing</title>
<desc>Line chart showing graph prior exact-target success flat at fifty percent while learned routing reaches one hundred percent by epoch fourteen.</desc>
<rect x="0.0" y="0.0" width="1160.0" height="720.0" fill="#09141d" />
<rect x="24.0" y="24.0" width="1112.0" height="672.0" fill="#0d1b27" stroke="#173042" stroke-width="1" rx="28.0" ry="28.0" />
<text x="78.0" y="92.0" fill="#79d3ff" font-size="18" font-weight="700" font-family="'Space Grotesk', 'Arial', sans-serif" text-anchor="start" letter-spacing="1.4">Deterministic workflow proof</text>
<text x="78.0" y="130.0" fill="#dce8f1" font-size="34" font-weight="700" font-family="'Space Grotesk', 'Arial', sans-serif" text-anchor="start">Graph prior stays flat while learned routing reaches full success by epoch 14</text>
<text x="78.0" y="162.0" fill="#97afbf" font-size="18" font-weight="400" font-family="'Space Grotesk', 'Arial', sans-serif" text-anchor="start">Same 4 fixed workflow queries across 16 teacher-supervised epochs.</text>
<line x1="110.0" y1="570.0" x2="1074.0" y2="570.0" stroke="#1f3445" stroke-width="1" stroke-linecap="round" />
<text x="94.0" y="576.0" fill="#97afbf" font-size="15" font-weight="400" font-family="'IBM Plex Mono', monospace" text-anchor="end">0%</text>
<line x1="110.0" y1="475.0" x2="1074.0" y2="475.0" stroke="#1f3445" stroke-width="1" stroke-linecap="round" />
<text x="94.0" y="481.0" fill="#97afbf" font-size="15" font-weight="400" font-family="'IBM Plex Mono', monospace" text-anchor="end">25%</text>
<line x1="110.0" y1="380.0" x2="1074.0" y2="380.0" stroke="#1f3445" stroke-width="1" stroke-linecap="round" />
<text x="94.0" y="386.0" fill="#97afbf" font-size="15" font-weight="400" font-family="'IBM Plex Mono', monospace" text-anchor="end">50%</text>
<line x1="110.0" y1="285.0" x2="1074.0" y2="285.0" stroke="#1f3445" stroke-width="1" stroke-linecap="round" />
<text x="94.0" y="291.0" fill="#97afbf" font-size="15" font-weight="400" font-family="'IBM Plex Mono', monospace" text-anchor="end">75%</text>
<line x1="110.0" y1="190.0" x2="1074.0" y2="190.0" stroke="#1f3445" stroke-width="1" stroke-linecap="round" />
<text x="94.0" y="196.0" fill="#97afbf" font-size="15" font-weight="400" font-family="'IBM Plex Mono', monospace" text-anchor="end">100%</text>
<line x1="110.0" y1="190.0" x2="110.0" y2="570.0" stroke="#1f3445" stroke-width="1" stroke-linecap="round" opacity="0.55" />
<text x="110.0" y="602.0" fill="#97afbf" font-size="15" font-weight="400" font-family="'IBM Plex Mono', monospace" text-anchor="middle">1</text>
<line x1="302.8" y1="190.0" x2="302.8" y2="570.0" stroke="#1f3445" stroke-width="1" stroke-linecap="round" opacity="0.55" />
<text x="302.8" y="602.0" fill="#97afbf" font-size="15" font-weight="400" font-family="'IBM Plex Mono', monospace" text-anchor="middle">4</text>
<line x1="559.9" y1="190.0" x2="559.9" y2="570.0" stroke="#1f3445" stroke-width="1" stroke-linecap="round" opacity="0.55" />
<text x="559.9" y="602.0" fill="#97afbf" font-size="15" font-weight="400" font-family="'IBM Plex Mono', monospace" text-anchor="middle">8</text>
<line x1="816.9" y1="190.0" x2="816.9" y2="570.0" stroke="#1f3445" stroke-width="1" stroke-linecap="round" opacity="0.55" />
<text x="816.9" y="602.0" fill="#97afbf" font-size="15" font-weight="400" font-family="'IBM Plex Mono', monospace" text-anchor="middle">12</text>
<line x1="945.5" y1="190.0" x2="945.5" y2="570.0" stroke="#1f3445" stroke-width="1" stroke-linecap="round" opacity="0.55" />
<text x="945.5" y="602.0" fill="#97afbf" font-size="15" font-weight="400" font-family="'IBM Plex Mono', monospace" text-anchor="middle">14</text>
<line x1="1074.0" y1="190.0" x2="1074.0" y2="570.0" stroke="#1f3445" stroke-width="1" stroke-linecap="round" opacity="0.55" />
<text x="1074.0" y="602.0" fill="#97afbf" font-size="15" font-weight="400" font-family="'IBM Plex Mono', monospace" text-anchor="middle">16</text>
<text x="592.0" y="632.0" fill="#97afbf" font-size="16" font-weight="400" font-family="'Space Grotesk', 'Arial', sans-serif" text-anchor="middle">Epoch</text>
<polygon points="110.0,570.0 110.0,380.0 174.3,380.0 238.5,380.0 302.8,380.0 367.1,380.0 431.3,380.0 495.6,380.0 559.9,380.0 624.1,380.0 688.4,380.0 752.7,380.0 816.9,380.0 881.2,380.0 945.5,190.0 1009.7,190.0 1074.0,190.0 1074.0,570.0" fill="#79d3ff" opacity="0.1" />
<polyline points="110.0,380.0 174.3,380.0 238.5,380.0 302.8,380.0 367.1,380.0 431.3,380.0 495.6,380.0 559.9,380.0 624.1,380.0 688.4,380.0 752.7,380.0 816.9,380.0 881.2,380.0 945.5,380.0 1009.7,380.0 1074.0,380.0" stroke="#9ce0bc" stroke-width="4" fill="none" stroke-linecap="round" stroke-linejoin="round" stroke-dasharray="12 10" />
<polyline points="110.0,380.0 174.3,380.0 238.5,380.0 302.8,380.0 367.1,380.0 431.3,380.0 495.6,380.0 559.9,380.0 624.1,380.0 688.4,380.0 752.7,380.0 816.9,380.0 881.2,380.0 945.5,190.0 1009.7,190.0 1074.0,190.0" stroke="#79d3ff" stroke-width="5" fill="none" stroke-linecap="round" stroke-linejoin="round" />
<circle cx="110.0" cy="380.0" r="4.5" fill="#9ce0bc" stroke="#0d1b27" stroke-width="2" />
<circle cx="174.3" cy="380.0" r="4.5" fill="#9ce0bc" stroke="#0d1b27" stroke-width="2" />
<circle cx="238.5" cy="380.0" r="4.5" fill="#9ce0bc" stroke="#0d1b27" stroke-width="2" />
<circle cx="302.8" cy="380.0" r="4.5" fill="#9ce0bc" stroke="#0d1b27" stroke-width="2" />
<circle cx="367.1" cy="380.0" r="4.5" fill="#9ce0bc" stroke="#0d1b27" stroke-width="2" />
<circle cx="431.3" cy="380.0" r="4.5" fill="#9ce0bc" stroke="#0d1b27" stroke-width="2" />
<circle cx="495.6" cy="380.0" r="4.5" fill="#9ce0bc" stroke="#0d1b27" stroke-width="2" />
<circle cx="559.9" cy="380.0" r="4.5" fill="#9ce0bc" stroke="#0d1b27" stroke-width="2" />
<circle cx="624.1" cy="380.0" r="4.5" fill="#9ce0bc" stroke="#0d1b27" stroke-width="2" />
<circle cx="688.4" cy="380.0" r="4.5" fill="#9ce0bc" stroke="#0d1b27" stroke-width="2" />
<circle cx="752.7" cy="380.0" r="4.5" fill="#9ce0bc" stroke="#0d1b27" stroke-width="2" />
<circle cx="816.9" cy="380.0" r="4.5" fill="#9ce0bc" stroke="#0d1b27" stroke-width="2" />
<circle cx="881.2" cy="380.0" r="4.5" fill="#9ce0bc" stroke="#0d1b27" stroke-width="2" />
<circle cx="945.5" cy="380.0" r="4.5" fill="#9ce0bc" stroke="#0d1b27" stroke-width="2" />
<circle cx="1009.7" cy="380.0" r="4.5" fill="#9ce0bc" stroke="#0d1b27" stroke-width="2" />
<circle cx="1074.0" cy="380.0" r="4.5" fill="#9ce0bc" stroke="#0d1b27" stroke-width="2" />
<circle cx="110.0" cy="380.0" r="4.5" fill="#79d3ff" stroke="#0d1b27" stroke-width="2" />
<circle cx="174.3" cy="380.0" r="4.5" fill="#79d3ff" stroke="#0d1b27" stroke-width="2" />
<circle cx="238.5" cy="380.0" r="4.5" fill="#79d3ff" stroke="#0d1b27" stroke-width="2" />
<circle cx="302.8" cy="380.0" r="4.5" fill="#79d3ff" stroke="#0d1b27" stroke-width="2" />
<circle cx="367.1" cy="380.0" r="4.5" fill="#79d3ff" stroke="#0d1b27" stroke-width="2" />
<circle cx="431.3" cy="380.0" r="4.5" fill="#79d3ff" stroke="#0d1b27" stroke-width="2" />
<circle cx="495.6" cy="380.0" r="4.5" fill="#79d3ff" stroke="#0d1b27" stroke-width="2" />
<circle cx="559.9" cy="380.0" r="4.5" fill="#79d3ff" stroke="#0d1b27" stroke-width="2" />
<circle cx="624.1" cy="380.0" r="4.5" fill="#79d3ff" stroke="#0d1b27" stroke-width="2" />
<circle cx="688.4" cy="380.0" r="4.5" fill="#79d3ff" stroke="#0d1b27" stroke-width="2" />
<circle cx="752.7" cy="380.0" r="4.5" fill="#79d3ff" stroke="#0d1b27" stroke-width="2" />
<circle cx="816.9" cy="380.0" r="4.5" fill="#79d3ff" stroke="#0d1b27" stroke-width="2" />
<circle cx="881.2" cy="380.0" r="4.5" fill="#79d3ff" stroke="#0d1b27" stroke-width="2" />
<circle cx="945.5" cy="190.0" r="4.5" fill="#79d3ff" stroke="#0d1b27" stroke-width="2" />
<circle cx="1009.7" cy="190.0" r="4.5" fill="#79d3ff" stroke="#0d1b27" stroke-width="2" />
<circle cx="1074.0" cy="190.0" r="4.5" fill="#79d3ff" stroke="#0d1b27" stroke-width="2" />
<line x1="945.5" y1="190.0" x2="945.5" y2="570.0" stroke="#ff8e66" stroke-width="2.5" stroke-linecap="round" stroke-dasharray="8 8" />
<rect x="831.5" y="202.0" width="228.0" height="44.0" fill="#112433" stroke="#ff8e66" stroke-width="1" rx="14.0" ry="14.0" />
<text x="945.5" y="230.0" fill="#dce8f1" font-size="17" font-weight="600" font-family="'Space Grotesk', 'Arial', sans-serif" text-anchor="middle">epoch 14: learned reaches 4/4</text>
<rect x="744.0" y="238.0" width="290.0" height="116.0" fill="#0a1823" stroke="#173042" stroke-width="1" rx="18.0" ry="18.0" />
<circle cx="772.0" cy="268.0" r="7.0" fill="#9ce0bc" />
<text x="790.0" y="274.0" fill="#dce8f1" font-size="17" font-weight="600" font-family="'IBM Plex Mono', monospace" text-anchor="start">graph_prior_only</text>
<text x="790.0" y="300.0" fill="#97afbf" font-size="15" font-weight="400" font-family="'Space Grotesk', 'Arial', sans-serif" text-anchor="start">2/4 exact-target success from epoch 1 through 16</text>
<circle cx="772.0" cy="330.0" r="7.0" fill="#79d3ff" />
<text x="790.0" y="336.0" fill="#dce8f1" font-size="17" font-weight="600" font-family="'IBM Plex Mono', monospace" text-anchor="start">learned</text>
<text x="790.0" y="362.0" fill="#97afbf" font-size="15" font-weight="400" font-family="'Space Grotesk', 'Arial', sans-serif" text-anchor="start">2/4 until epoch 13, then 4/4 from epoch 14 onward</text>
<rect x="76.0" y="590.0" width="1008.0" height="74.0" fill="#0a1823" stroke="#173042" stroke-width="1" rx="20.0" ry="20.0" />
<text x="102.0" y="622.0" fill="#dce8f1" font-size="17" font-weight="500" font-family="'Space Grotesk', 'Arial', sans-serif" text-anchor="start">This is a controlled mechanism result: graph priors help immediately, then the learned runtime route_fn improves later off the hot path.</text>
<text x="102.0" y="649.0" fill="#97afbf" font-size="16" font-weight="400" font-family="'Space Grotesk', 'Arial', sans-serif" text-anchor="start">It still needs recorded-session, shadow, and online evidence before any production win claim.</text>
</svg>
